<?xml version="1.0" standalone="no"?>
<!DOCTYPE svg PUBLIC "-//W3C//DTD SVG 20010904//EN"
 "http://www.w3.org/TR/2001/REC-SVG-20010904/DTD/svg10.dtd">
<svg version="1.0" xmlns="http://www.w3.org/2000/svg"
 width="700.000000pt" height="700.000000pt" viewBox="0 0 700.000000 700.000000"
 preserveAspectRatio="xMidYMid meet">
<metadata>
Created by potrace 1.14, written by Peter Selinger 2001-2017
</metadata>
<g transform="translate(0.000000,700.000000) scale(0.100000,-0.100000)"
fill="#000000" stroke="none">
<path d="M4935 6809 c-67 -8 -121 -27 -257 -94 -104 -49 -126 -52 -245 -31
-98 18 -197 12 -363 -19 -35 -7 -187 -47 -215 -56 -65 -23 -174 -82 -240 -131
-136 -100 -335 -322 -335 -373 0 -9 10 -25 22 -34 29 -24 18 -53 -19 -50 -65
5 -62 10 -112 -181 -68 -259 -86 -401 -68 -556 14 -118 101 -367 142 -406 14
-13 25 -33 25 -46 0 -35 72 -211 137 -339 91 -178 135 -229 240 -284 96 -50
235 -88 320 -89 53 0 73 -19 67 -62 -28 -192 -216 -738 -254 -738 -4 0 -21 28
-38 63 -17 34 -45 83 -61 107 -17 25 -31 49 -31 53 0 4 -5 13 -10 20 -29 34
-64 92 -115 192 -31 61 -65 119 -76 131 -10 11 -25 41 -33 66 -7 25 -27 65
-44 89 -16 25 -61 112 -100 194 -38 83 -86 184 -105 226 -66 140 -89 211 -92
282 -1 37 -5 71 -8 74 -3 2 -20 2 -37 -2 -37 -8 -54 -33 -111 -165 -22 -52
-47 -108 -54 -125 -66 -151 -190 -546 -219 -699 -2 -11 -9 -41 -14 -66 -6 -25
-13 -61 -16 -80 -3 -19 -8 -46 -11 -60 -12 -61 -15 -77 -20 -117 -3 -24 -7
-60 -10 -80 -2 -21 -7 -58 -10 -83 -15 -134 -27 -195 -62 -335 -14 -55 -25
-115 -25 -132 0 -45 34 -100 136 -218 47 -55 86 -104 86 -110 -1 -25 -55 -65
-89 -65 -42 0 -47 -73 -13 -230 10 -47 17 -91 16 -97 -1 -7 -2 -24 -3 -38 0
-14 -14 -39 -31 -55 -28 -28 -54 -35 -150 -45 -19 -2 -39 -4 -43 -4 -21 -2
-87 -89 -137 -177 -56 -99 -128 -182 -267 -304 -78 -69 -117 -135 -178 -297
-54 -146 -75 -180 -113 -189 -15 -4 -88 -33 -162 -64 -74 -32 -146 -61 -160
-65 -88 -26 -197 -187 -240 -355 -21 -79 -17 -139 14 -227 26 -75 123 -293
136 -306 4 -5 43 -12 86 -15 109 -10 2631 -9 2674 1 l35 7 2 73 c1 71 20 141
87 322 14 39 39 120 55 182 17 62 53 168 81 237 27 68 50 136 50 151 0 52 -50
117 -102 129 -14 3 -39 20 -55 38 -70 80 -94 97 -163 119 -85 26 -120 56 -120
100 0 17 -10 49 -22 70 -21 38 -21 40 -5 99 32 113 19 151 -86 251 l-74 70 22
92 c12 51 22 94 22 97 9 59 30 99 80 144 125 115 142 135 152 178 6 24 24 84
40 133 37 113 33 123 -64 147 -66 16 -90 32 -78 51 5 9 266 3 323 -7 14 -2 52
-7 85 -11 32 -4 68 -9 80 -11 11 -2 47 -9 80 -15 33 -6 70 -13 82 -15 55 -10
153 -14 351 -14 204 0 212 -1 212 -20 0 -10 -22 -88 -49 -172 -89 -275 -174
-610 -255 -1000 -7 -32 -9 -43 -54 -228 -33 -133 -145 -515 -217 -735 -86
-266 -102 -345 -84 -409 13 -43 25 -52 53 -37 37 20 72 100 80 181 6 56 18
113 32 146 12 29 49 163 59 213 8 40 16 61 25 61 18 0 22 -45 14 -153 -12
-191 -4 -270 31 -283 8 -4 21 -1 29 5 12 10 17 27 32 99 4 20 14 150 19 252
17 323 44 479 131 752 42 132 73 235 78 263 3 11 17 49 31 85 15 36 34 88 42
115 38 127 169 433 285 665 70 140 128 267 128 282 0 34 -38 64 -93 73 -23 4
-52 13 -65 21 -21 14 -21 16 -8 49 8 19 13 35 11 35 -1 0 10 35 27 78 51 132
68 192 68 241 0 72 -14 84 -96 84 -58 1 -78 -4 -130 -30 -33 -17 -80 -34 -105
-38 -24 -3 -55 -8 -69 -10 -14 -3 -41 -7 -60 -10 -88 -14 -218 -45 -252 -59
-21 -9 -38 -14 -38 -11 0 2 -11 1 -23 -4 -20 -8 -128 -23 -252 -36 -37 -4 -84
-12 -150 -25 -27 -6 -59 -12 -70 -14 -19 -4 -144 -33 -175 -41 -82 -22 -238
-68 -475 -140 -94 -29 -142 -38 -219 -41 -90 -4 -102 -7 -135 -33 -48 -37 -63
-42 -105 -30 -34 9 -136 100 -136 121 0 6 -8 22 -19 36 -31 44 -73 154 -75
195 -1 25 -9 44 -20 53 -14 10 -17 22 -13 53 3 28 0 45 -10 52 -10 9 -13 33
-10 97 2 54 -3 115 -13 165 -23 112 -17 270 16 417 37 165 139 422 173 435 10
4 23 -3 37 -20 27 -35 130 -219 228 -408 42 -81 119 -224 171 -317 52 -94 104
-190 115 -214 12 -24 30 -53 41 -65 12 -12 22 -29 23 -37 1 -9 13 -28 26 -44
13 -16 45 -68 70 -116 26 -48 54 -92 63 -98 28 -18 68 24 122 126 27 52 58
107 68 122 23 35 47 102 47 133 0 13 11 45 24 71 24 47 31 73 42 147 14 101
21 125 58 208 15 32 28 73 30 90 2 18 4 36 5 41 1 11 45 3 103 -20 l46 -18 41
27 c23 15 53 46 67 68 36 57 62 79 189 156 61 36 126 78 145 92 278 206 530
450 579 562 11 24 40 80 65 123 101 176 140 377 141 716 0 133 -2 156 -25 235
-18 63 -71 185 -80 185 -4 0 -11 20 -14 44 -10 65 -52 187 -105 306 -112 251
-217 339 -386 319z m139 -154 c80 -53 135 -162 239 -475 105 -313 108 -330
103 -540 -3 -96 -7 -186 -10 -200 -2 -14 -7 -45 -10 -70 -20 -157 -75 -305
-164 -443 -98 -152 -401 -419 -645 -567 -49 -30 -91 -58 -93 -62 -3 -5 -31 14
-61 42 -65 60 -102 64 -137 17 -19 -26 -20 -29 -4 -71 12 -33 13 -46 5 -49
-15 -5 -117 -1 -204 8 -374 38 -511 119 -595 348 -16 45 -45 112 -64 149 -64
125 -164 393 -181 487 -2 13 -6 28 -9 32 -15 26 -23 241 -12 329 9 66 121 389
163 468 48 92 105 164 140 180 17 8 38 27 47 42 28 49 179 147 306 199 112 46
329 85 465 83 75 0 101 -14 93 -46 -11 -43 7 -47 72 -15 46 23 77 31 117 31
51 1 55 3 55 25 0 13 7 37 14 52 25 47 58 62 159 68 51 3 93 6 95 8 7 6 94
-16 116 -30z m-2375 -3534 c6 -11 25 -57 41 -104 17 -47 47 -107 66 -134 19
-26 34 -53 34 -60 0 -6 32 -42 70 -79 39 -38 70 -74 70 -80 0 -6 -13 -14 -29
-17 -17 -4 -30 -14 -34 -26 -4 -15 -10 -18 -28 -14 -36 9 -56 26 -92 76 -18
25 -54 69 -80 96 -73 77 -94 147 -75 251 4 25 10 60 13 78 7 36 29 43 44 13z
m2585 -26 c-2 -33 -95 -279 -118 -311 -13 -18 -28 -19 -223 -19 -253 1 -379
10 -583 45 -104 17 -133 20 -247 26 -62 3 -126 9 -141 14 l-27 8 38 16 c59 26
371 93 512 111 11 1 34 5 50 8 17 3 48 9 69 12 111 16 278 50 416 85 98 25
173 39 205 37 49 -2 50 -3 49 -32z m36 -458 c0 -27 -44 -120 -65 -137 -13 -10
-15 -8 -15 16 1 39 53 144 72 144 5 0 8 -10 8 -23z m-1980 -40 c14 -6 41 -24
60 -39 42 -34 46 -34 112 -5 51 23 138 38 243 42 62 3 110 -19 129 -60 13 -27
13 -40 1 -98 -17 -83 -26 -100 -73 -134 -58 -42 -102 -86 -118 -115 -8 -15
-32 -90 -54 -168 -48 -168 -50 -162 64 -287 l74 -82 -24 -78 c-30 -98 -30
-102 5 -166 16 -28 36 -75 45 -103 22 -67 58 -100 146 -130 80 -28 85 -32 118
-84 12 -19 38 -46 58 -60 87 -61 91 -77 39 -179 -19 -38 -47 -113 -64 -167
-16 -55 -46 -151 -66 -214 -20 -63 -48 -152 -62 -197 l-26 -83 -1302 0 -1302
0 -41 87 c-53 114 -62 151 -57 233 10 179 165 323 447 414 l103 33 60 149 c88
216 117 265 226 379 81 85 187 216 246 303 75 112 101 136 170 156 32 10 72
22 89 27 66 20 93 83 89 205 -2 45 -8 107 -14 139 -14 77 -7 101 35 115 61 21
79 5 172 -150 64 -108 104 -206 138 -345 28 -115 47 -165 65 -165 40 0 109 68
109 109 0 22 36 61 57 61 14 0 28 -26 37 -72 9 -39 66 -110 111 -135 51 -29
87 -29 122 1 l27 24 -35 58 c-20 33 -55 96 -79 142 -67 130 -97 143 -230 96
-46 -16 -76 -22 -82 -16 -6 6 -18 38 -27 73 -22 80 -20 75 -101 249 -88 189
-88 186 -53 203 41 21 126 37 228 44 50 3 91 6 92 7 6 6 70 -6 93 -17z"/>
<path d="M3507 2341 c-27 -32 -44 -77 -34 -87 13 -13 49 10 64 42 12 24 14 39
7 55 -10 21 -10 21 -37 -10z"/>
</g>
</svg>
